<svg width="86" height="86" viewBox="0 0 86 86" fill="none" xmlns="http://www.w3.org/2000/svg">
<circle cx="43" cy="43" r="43" fill="white"/>
<path d="M66.2143 31.2544H55.5V21.8757C55.5 20.7503 54.7857 20 53.7143 20H32.2857C31.2143 20 30.5 20.7503 30.5 21.8757V31.2544H19.7857C18.7143 31.2544 18 32.0047 18 33.1302V55.639C18 58.8277 20.3214 61.2662 23.3571 61.2662H30.5V65.0177C30.5 66.1431 31.2143 66.8934 32.2857 66.8934H50.1429C50.6786 66.8934 51.0357 66.7058 51.3929 66.3307L54.9643 62.5792C55.3214 62.2041 55.5 61.8289 55.5 61.2662H62.6429C65.6786 61.2662 68 58.8277 68 55.639V33.1302C68 32.0047 67.2857 31.2544 66.2143 31.2544ZM34.0714 23.7515H51.9286V31.2544H34.0714V23.7515ZM51.9286 60.5159L49.4286 63.1419H34.0714V51.8875H51.9286V60.5159ZM64.4286 55.639C64.4286 56.7644 63.7143 57.5147 62.6429 57.5147H55.5V51.8875H59.0714C60.1429 51.8875 60.8571 51.1372 60.8571 50.0118C60.8571 48.8863 60.1429 48.136 59.0714 48.136H26.9286C25.8571 48.136 25.1429 48.8863 25.1429 50.0118C25.1429 51.1372 25.8571 51.8875 26.9286 51.8875H30.5V57.5147H23.3571C22.2857 57.5147 21.5714 56.7644 21.5714 55.639V35.0059H64.4286V55.639Z" fill="#7E817A"/>
</svg>
