<svg width="86" height="86" viewBox="0 0 86 86" fill="none" xmlns="http://www.w3.org/2000/svg">
<circle cx="43" cy="43" r="43" fill="white"/>
<path d="M56.9369 49.9286C55.7242 49.9375 54.5292 50.2212 53.4416 50.7584C52.3541 51.2956 51.4023 52.0724 50.6576 53.0304L35.7544 45.5733C35.9461 44.8985 36.0487 44.2015 36.0595 43.5C36.0487 42.7986 35.9461 42.1016 35.7544 41.4268L50.6576 33.9697C51.4023 34.9277 52.3541 35.7044 53.4416 36.2416C54.5292 36.7789 55.7242 37.0626 56.9369 37.0715C58.5251 37.0715 60.0775 36.6002 61.398 35.7172C62.7185 34.8342 63.7477 33.5792 64.3555 32.1109C64.9632 30.6425 65.1222 29.0268 64.8124 27.468C64.5026 25.9093 63.7378 24.4774 62.6148 23.3536C61.4918 22.2298 60.0611 21.4645 58.5035 21.1544C56.9458 20.8443 55.3313 21.0035 53.8641 21.6117C52.3968 22.2199 51.1427 23.2499 50.2604 24.5713C49.3781 25.8928 48.9072 27.4464 48.9072 29.0357C48.918 29.7372 49.0206 30.4342 49.2123 31.1089L34.309 38.5661C33.5644 37.6081 32.6126 36.8313 31.5251 36.2941C30.4375 35.7569 29.2425 35.4732 28.0298 35.4643C25.9001 35.4643 23.8577 36.3109 22.3519 37.8179C20.846 39.3249 20 41.3688 20 43.5C20 45.6312 20.846 47.6752 22.3519 49.1821C23.8577 50.6891 25.9001 51.5358 28.0298 51.5358C29.2425 51.5269 30.4375 51.2432 31.5251 50.706C32.6126 50.1687 33.5644 49.392 34.309 48.434L49.2123 55.8911C48.7792 57.5144 48.8653 59.2327 49.4587 60.8044C50.0521 62.3761 51.1228 63.7221 52.5203 64.6532C53.9179 65.5843 55.5719 66.0536 57.2497 65.9951C58.9276 65.9366 60.545 65.3533 61.8744 64.3272C63.2038 63.301 64.1783 61.8837 64.661 60.2745C65.1437 58.6653 65.1102 56.9452 64.5652 55.356C64.0203 53.7668 62.9913 52.3885 61.623 51.415C60.2546 50.4415 58.6158 49.9216 56.9369 49.9286ZM56.9369 24.2143C57.8898 24.2143 58.8213 24.4971 59.6136 25.0269C60.4059 25.5566 61.0234 26.3096 61.3881 27.1906C61.7527 28.0716 61.8481 29.0411 61.6622 29.9763C61.4763 30.9116 61.0175 31.7707 60.3437 32.445C59.6699 33.1193 58.8114 33.5785 57.8769 33.7645C56.9423 33.9506 55.9736 33.8551 55.0932 33.4902C54.2129 33.1252 53.4604 32.5073 52.931 31.7144C52.4016 30.9215 52.1191 29.9893 52.1191 29.0357C52.1191 27.757 52.6267 26.5307 53.5302 25.6265C54.4337 24.7223 55.6591 24.2143 56.9369 24.2143ZM28.0298 48.3215C27.0769 48.3215 26.1454 48.0387 25.3531 47.5089C24.5608 46.9791 23.9433 46.2261 23.5786 45.3451C23.214 44.4641 23.1186 43.4947 23.3045 42.5594C23.4904 41.6242 23.9492 40.7651 24.623 40.0908C25.2968 39.4165 26.1553 38.9573 27.0898 38.7712C28.0244 38.5852 28.9931 38.6807 29.8735 39.0456C30.7538 39.4105 31.5063 40.0285 32.0357 40.8214C32.5651 41.6143 32.8476 42.5464 32.8476 43.5C32.8476 44.7788 32.34 46.0051 31.4365 46.9093C30.533 47.8135 29.3075 48.3215 28.0298 48.3215ZM56.9369 62.7858C55.984 62.7858 55.0526 62.503 54.2603 61.9732C53.468 61.4434 52.8505 60.6904 52.4858 59.8094C52.1212 58.9284 52.0257 57.959 52.2116 57.0237C52.3975 56.0885 52.8564 55.2294 53.5302 54.5551C54.204 53.8808 55.0624 53.4216 55.997 53.2355C56.9316 53.0495 57.9003 53.145 58.7806 53.5099C59.661 53.8748 60.4134 54.4928 60.9428 55.2857C61.4722 56.0786 61.7548 57.0107 61.7548 57.9643C61.7548 59.2431 61.2472 60.4694 60.3437 61.3736C59.4401 62.2778 58.2147 62.7858 56.9369 62.7858Z" fill="#7E817A"/>
</svg>
