<svg width="80" height="80" viewBox="0 0 70 70" fill="none" xmlns="http://www.w3.org/2000/svg">
<path fill-rule="evenodd" clip-rule="evenodd" d="M35 10.208C21.3296 10.208 10.2084 21.3293 10.2084 34.9997C10.2084 48.6701 21.3296 59.7913 35 59.7913C48.6705 59.7913 59.7917 48.6701 59.7917 34.9997C59.7917 21.3293 48.6705 10.208 35 10.208ZM35 64.1663C18.9175 64.1663 5.83337 51.0822 5.83337 34.9997C5.83337 18.9172 18.9175 5.83301 35 5.83301C51.0825 5.83301 64.1667 18.9172 64.1667 34.9997C64.1667 51.0822 51.0825 64.1663 35 64.1663Z" fill="#A18129"/>
<path fill-rule="evenodd" clip-rule="evenodd" d="M39.2071 47.3102C38.65 47.3102 38.09 47.0973 37.6641 46.6715L27.4937 36.5507C27.0825 36.1394 26.8521 35.5823 26.8521 34.999C26.8521 34.4186 27.0825 33.8615 27.4937 33.4502L37.6641 23.3265C38.5187 22.4748 39.9012 22.4748 40.7558 23.3323C41.6104 24.1898 41.6046 25.5752 40.75 26.4269L32.14 34.999L40.75 43.574C41.6046 44.4257 41.6104 45.8082 40.7558 46.6657C40.33 47.0973 39.7671 47.3102 39.2071 47.3102Z" fill="#A18129"/>
</svg>
